<?xml version="1.0" encoding="UTF-8"?>
<svg version="1.1" viewBox="0 0 896 896" width="1280" height="1280" xmlns="http://www.w3.org/2000/svg">
<path transform="translate(0)" d="m0 0h896v896h-896z" fill="#DBB35A"/>
<path transform="translate(0)" d="m0 0h392v1l-15 2-28 5-27 7-35 12-26 11-16 8-19 10-18 11-12 8-14 10-13 10-11 9-20 18-19 19-7 8-12 14-12 16-16 23-12 20-9 16-13 27-11 28-10 31-8 33-6 36h51l4 2 5-27 9-36 11-32 11-24 8-16 11-20 17-25 10-13 14-17 7-7 7-8 12-12 8-7 10-9 14-11 18-13 21-13 27-14 17-8 30-11 12-4h4v106l-5 4-25 12-21 12-18 13-11 9-11 10-8 7-12 13-9 11-13 18-15 25-11 22-8 21-7 24-4 21-2 18-1 3h-158v55h208l102 1 5 24 5 16 8 18 10 17 9 11 10 11 11 9 12 9 16 9 3 2 1 5v42h28l1-37 29 3 5 1 1 34h29v-38l27-9 23-12 16-12 9-8 5-1h70l2 2-11 16-9 11-11 12-5 6h-2v2l-8 7-18 14-21 13-25 12-20 7-23 6-31 4h-30l-25-3-19-4-30-10-23-11-10-6-15-10-16-13-10-9-7-7-14-16-13-18-8-14-8-16-8-19-7-25v-2h-55l-2-1 5 23 7 24 10 24 8 16 9 16 14 20 13 16 13 15 16 15 14 11 12 9 19 12 29 15 8 4 1 12v65l-1 30-6-1-31-11-21-9-22-11-16-10-18-11-16-12-11-9-14-12-9-9-8-7-12-13-10-11-12-16-13-18-9-15-10-18-12-23-11-27-9-28-6-25-6-29-55-1 6 36 7 30 8 27 11 29 9 20 11 22 10 17 10 16 12 17 10 13 9 11 1 3h2l3 4v2h2l7 8 14 15 11 10 16 14 17 13 12 9 18 12 20 12 21 11 32 14 28 10 36 10 25 5 22 4h3l1-158 3-1 17 2 15 1h34l23-2 10-1 1 8v151l40-7 32-8 33-11 29-12 25-12 19-11 19-12 17-12 13-10 28-24 20-20 7-8 14-17 12-16 11-15 14-22 13-24 12-25 11-28 8-25 8-32 5-27 4-34 1-12h1v430h-896z" fill="#1E1209"/>
<path transform="translate(392)" d="m0 0h115l35 6 32 8 36 12 26 11 16 8 21 11 19 12 19 13 14 11 13 11 14 12 27 27 9 11 11 13 10 13 12 17 13 21 9 16 11 21 12 29 11 29v2h-59l-4-8-8-20-9-19-13-23-12-19-12-17-13-16-18-20-12-12-8-7-14-12-17-13-21-14-17-10-18-10-13-6-25-10-23-8-5-1v105l1 2 10 4 21 10 18 11 17 12 13 11 10 9 15 15 7 8v2h2l13 17 12 18 10 18 10 21 2 6h31l41 1v1h-17l-1 2-7-1h-3-3l2 2h-41l-2-1v-2l-7-1-1-2-3-3-4-7v-3h-2l-6-10-5-9-8-7-1-4-4-1-6-3-6 1v-2l-5 2-4 5-1 6 4 9 2 10 2 5 3 9 3 10 3 9 4 13 3 8 4 10v2l16 2 13 2-1 2h-34l-8-25-6-16-10-21-11-18-10-13-12-14-16-16-14-11-14-10-15-9-19-9-20-8-19-5-22-4-23-2h-23l-26 3-23 5-24 8-29 14-18 12-17 13-15 14-13 14-10 13-10 15-11 20-8 19-7 22-4 21-1 11h100l7-18 9-17 12-17 12-13 10-9 17-12 16-8h2v-57l1-1h27l1 1v47l20-3 14-1 1-43 1-1 28 1 1 47 20 6 18 8 16 10 11 9 8 7 4 5v2l10 3 9 6 7 8 4 10 1 5v7l-4 11-6 8-7 6-11 4h-12l-9-3-8-6-7-10-5-10-11-10-11-8-16-8-15-4-15-2h-9l-16 2-18 6-16 9-14 12-9 11-10 19-5 16-2 12v16l4 19 5 13 8 14 7 9 11 11 15 10 16 6 20 4h21l17-4 12-5 14-8 11-9 7-7 13-9 2-1h54v2l-19 1-23 2-13 4-6 4-7 7h-2v2l-10 8-4 1v2l-14 8-11 5-11 4-13 2-10 1h-15l-23-3-17-5h-11v-2l-5 1-1-3-1 2-5 2-1 2 1 9 8 11 7 8 1 3 4 4 2 7 2 4 1 30h2l1 2 4 1h6l1-20 3-7h2l1-2v38h-28l-1-1v-42l-1-5-15-8-14-10-10-9-8-7-7-8-10-14-9-16-7-17-4-13-4-20v-4h-304l-6-1v-55h158l2-21 5-24 7-23 8-21 12-24 13-21 13-18 13-15 11-12 13-12 14-11 13-10 20-12 23-12 12-6 1-1v-52l1-54-36 12-23 10-26 13-20 12-17 12-13 10-16 13-8 8-8 7-11 11-7 8-8 9-11 14-11 15-13 20-11 19-11 23-8 19-12 36-8 34-4 20-1 2-4-1-51-1v-8l6-32 9-36 12-35 12-28 12-24 14-23 10-15 12-17 11-14 12-14 14-15 18-18 8-7 13-11 20-15 14-10 18-11 21-12 16-8 17-8 26-10 31-10 25-6 28-5z" fill="#F7DB83"/>
<path transform="translate(434,211)" d="m0 0h23l23 2 22 4 22 6 21 9 16 8 16 9 17 13 13 11 17 17 9 11 13 18 12 22 9 21 7 21 3 10 160 1 1 2 3 40v23l-3 30-1 7-161 1-2 12-1 2-113 1-10 2-10 7-10 9-11 9-16 9-13 5-14 3h-21l-20-4-16-6-16-11-14-14-9-14-6-13-4-14-2-11v-16l4-20 7-16 8-14 12-13 13-10 15-8 16-5 16-2h9l20 3 15 5 14 8 11 9 10 9 7 14 6 7 10 5 4 1h12l11-4 9-8 6-12 1-4v-7l-4-13-6-8-8-6-10-4-5-5-5-6-11-9-15-10-16-8-13-5-14-4-1-1v-47h-28l-1 43-1 1-34 3-1-47h-27l-1 57-21 11-16 12-15 14-10 13-10 16-8 17-5 12h-37l-63-1v-11l5-25 8-23 9-20 13-22 12-16 10-11 7-8 9-9 11-9 16-12 18-11 25-12 24-8 23-5z" fill="#1E1209"/>
<path transform="translate(392)" d="m0 0h108l-1 154-2 5-28-3h-41l-20 2h-6v2l-5 1 3 3 4 1 32 1v2l9-1 7 4 3 5 1 2h2l-1-6 5 2 3 5v3l-3 2-9 1-1 7-4 1-3-1-1 4-12 2-16 3-6 2-12 3-6 1v2l-7 1-12 5-5 3-9 3-19 8-2 2-7 3-5 3h-2v2l-11 7-7 6h-2v2l-8 6-8 7-15 15-5 6-5 5-6 7-6 9-4 5-4 6-4 7-2 1-2 6-4 6-4 9-6 11-2 9-2 2-3 10-2 8-1 3-2 11v31l-4 10-4 1v2l-12 7-6 2-14 3-16 2-11 2-18 1-9 1h-10l-9 1-16 3-3 1 209 1 26 1v1h-304l-6-1v-55h158l2-21 5-24 7-23 8-21 12-24 13-21 13-18 13-15 11-12 13-12 14-11 13-10 20-12 23-12 12-6 1-1v-52l1-54-36 12-23 10-26 13-20 12-17 12-13 10-16 13-8 8-8 7-11 11-7 8-8 9-11 14-11 15-13 20-11 19-11 23-8 19-12 36-8 34-4 20-1 2-4-1-51-1v-8l6-32 9-36 12-35 12-28 12-24 14-23 10-15 12-17 11-14 12-14 14-15 18-18 8-7 13-11 20-15 14-10 18-11 21-12 16-8 17-8 26-10 31-10 25-6 28-5z" fill="#E7C56D"/>
<path transform="translate(507)" d="m0 0h389v421h-1l-4-36-6-38-3-9-166-1-9-20-11-21-12-18-9-12-5-6v-2h-2l-9-11-20-20-11-9-13-10-11-7-20-12-23-11-5-2-1-2 1-105 8 1 31 11 23 10 19 10 17 10 21 14 16 12 14 12 10 9 8 7 14 14 7 8 11 13 14 19 13 20 10 17 10 19 9 20 7 18 59 1-16-41-11-25-12-23-16-26-14-20-13-16-9-11-12-14-26-26-11-9-14-12-12-9-19-13-21-13-22-12-29-13-27-10-26-8-30-7-30-5z" fill="#1E1209"/>
<path transform="translate(163,495)" d="m0 0 57 1 7 24 8 20 8 16 7 13 10 14 10 13 4 4v2l4 2 7 8 7 7 14 11 12 9 13 8 23 12 28 10 20 5 20 3 11 1h30l31-4 27-7 25-10 23-12 15-10 13-10 10-9h2v-2l14-14 11-14 11-15 1-2h2l1 9-5 12-4 4-2 5-4 5-7 8-5 6h-2v2l-8 7-5 5h-2l-2 4-15 10-4 4h-3l-1 2h-2l-4 4h-3v2l-9 4-14 8-10 4h-3v2l-5 2h-4v2l-14 6-6 1-15 5h-5v2l-5 4h-2l-1 3-8 2-3 5-7 1-2 5-1 4 1 1 10 1 1 1 18 1 8 3 2 4 2 1-10 3-23 2h-34l-23-2-11-1-1 158-4 1-37-7-25-6-27-8-27-10-33-15-24-13-22-14-15-11-18-14-10-8-7-7-11-9-12-12-7-8-4-4v-2h-2l-3-4v-2h-2l-11-14-13-17-16-24-15-26-13-26-12-30-10-30-8-33-5-27-1-6v-8h55l2 7 8 37 8 27 7 20 11 25 13 25 10 17 7 11 14 19 11 14 11 12 14 15 8 7 7 7 11 9 12 10 16 11 16 10 20 12 24 12 29 11 23 8v-101l-1-6-25-12-16-9-17-11-10-8-16-13-17-16-11-13-13-16-14-21-11-19-12-27-8-24-5-20z" fill="#E7C56D"/>
<path transform="translate(0)" d="m0 0h392v1l-15 2-28 5-27 7-35 12-26 11-16 8-19 10-18 11-12 8-14 10-13 10-11 9-20 18-19 19-7 8-12 14-12 16-16 23-12 20-9 16-13 27-11 28-10 31-7 29h-1l1-11 1-5h-2v6h-4l-2 2-3 1z" fill="#1F130A"/>
<path transform="translate(718,552)" d="m0 0h107l-2 9-7 21-11 26-10 21-12 21-10 15-10 14-13 16-12 14-14 15-8 8-8 7-14 12-20 15-18 12-19 11-23 12-26 11-26 9-7 1v-106l5-4 28-14 20-12 19-14 14-12 8-7 12-12 9-11 7-8 11-16 11-18 11-21 6-14z" fill="#1E1209"/>
<path transform="translate(381,10)" d="m0 0 6 3v32l-3 25-4 3-3 7-4-3-7 5-1 4-4 1-2 4h-3l-6-14-1-6-4-1-4-2-36 12-23 10-26 13-20 12-17 12-13 10-16 13-8 8-8 7-11 11-7 8-8 9-11 14-11 15-13 20-5 9-3-1-9 18-2 2-2 6-3 3v3l-4 4-5 10-4 11-4 8-3 11-4 10-3 9-3 12-2 4-2 12-4 10-7 3-6 1h-19v-2l-5-2-2-12 3-13 5-23 5-19 2-6 1-8 3-5 1-7h2l1-8 4-9 1-5h3v-5l1-3h2l2-10 2-5 4-4 6-11 3-4 1-4h2l2-5 6-9h2l1-4 7-10 1-3 2-1 2-4h2l2-8 2-2 2-4 5-5h2l1-4 3-1 7-8 5-6h2l2-4 4-5 5-2 1-3h2l2-4 12-12h3l2-4 7-5 3-3 5-3 5-5 13-10 9-6 10-7 5-2 1-2 11-7 13-7 5-1v-2l24-12 14-5 9-4 15-5 10-3 10-4 9-3 13-2 10-2 9-1 5-1 9-1z" fill="#DBB35A"/>
<path transform="translate(3,496)" d="m0 0h55l2 7 8 37 8 27 7 20 11 25 13 25 10 17 7 11 14 19 4 8 13 15 9 10 28 28 14 11 16 12 14 10 12 7 15 9 12 5 10 5 13 6v1h-9l-13-4-14-7-17-9v-2l-5-1-14-8-5-2v-2l-5-1-4-1-4-4-20-10-5 1-6 4-5 2 1 11 6 6 4 7 5 4 5 6 6 4 4 4 7 5v2l5 1 3 2v2l4 1v2l4 1 5 4 10 5 9 5 17 9 22 10 3 3v2l-10-3-17-7-21-10-23-13-10-7-4-2v-2l-4-1-23-15-11-9-14-12-10-9-8-7-21-21-6-7-3-1-11-14-13-17-16-24-15-26-13-26-12-30-10-30-8-33-5-27-1-6z" fill="#F7DC83"/>
<path transform="translate(397)" d="m0 0h103l-1 154-2 5-28-3h-41l-20 2-11 1z" fill="#1E1209"/>
<path transform="translate(675,497)" d="m0 0h163l-5 5-17 1-44 1h-21l-41 2-12 2-9 4-8 4-4 3-8 3-21 7-9 2-5 2-6-1v2l-10 2v7l-8 6-5 1 1 2 15 3 13 2 7 3 5 5v2l-2 1h-70l-5 2-10 9-16 11-23 12-24 7-1 38-17 1h-12l-1-1v-34l-17-1-17-3v37h-1l-1-35-2 1-2 7-1 17-1 2-7 1-4-2v-2h-2l-1-7-1-24-4-8-1-5-3-1-4-7-4-4-8-11-1-9 4-4h3l1-3 2 3 5 1h10l17 5 24 3h19l5-1 13-2 21-8 13-8h2v-2l9-6 3-3h2v-2h2l1-3h2l1-3 9-6 13-4 27-2h15v-2h-46v-1h113z" fill="#E7C56D"/>
<path transform="translate(163,495)" d="m0 0 57 1 7 24 8 20 8 16 7 13 10 14 10 13 4 4 3 6 10 11 11 9 13 11 6 4 18 11 14 7 20 8 19 6 20 4 19 2v3h-9l-12-2-8-1-12-1-20-4-13-4-21-8-12-5-10-5-5-1v3h-2v-3l-7-3-4 3h-2l-1 4-4 1 1 5 4 4 1 5 3-1 5 8 10 10 6 4 7 3v2l5 2 2 1v2h3v2l4 2 3 4-1 3-9-3-23-12-22-14-10-5-9-8-10-8-17-16-11-13-13-16-14-21-11-19-12-27-8-24-5-20z" fill="#F7DB83"/>
<path transform="translate(659,289)" d="m0 0h5 4l6 2 6 3 4 6 6 5 10 17v2h2l6 11 3 2-1 2 7 1v2h41l-3-2h7l1 1v-1h5 4l-25-1h-30l-1-2h166l2 2 4 20 4 26v13l-4-3-2-9-3-7-1-9h-2l-2-15-3-4v-2l-5-1h-22l-15 2-16 2v2l-10 2-4 4-2-1-1 7-7 4v6l2 3 13 3 12 2 10 4 1 4h5v1h-126v-1l-26-4-3-3-4-10-1-7-2-1-6-21-3-8-3-9-3-8-3-13-2-1-1-6 2-8z" fill="#E7C56D"/>
<path transform="translate(763,163)" d="m0 0 5 2 4-1 2 2-3 4 3-1 10 3v2l5 2 7 7v2h2l7 8 5 5 4 6 1 3h2l1 4h2v2h2l1 5h2l9 15 3 4 4 7 6 10 1 6 3 1 2 6 9 18 2 5 2 2v5l6 2 5 13v2h-59v-1l22-1-11-1-2-1v-2l-4-1-3-4v-2h-2l-3-9-5-11-3-8-3-7v-4h-2l-5-11-6-12-9-16v-2h-2l-7-15v-2l-3-1-9-17-4-10-2-4v-4l4-2h3z" fill="#E7C56D"/>
<path transform="translate(501)" d="m0 0 11 1 30 5 32 8 36 12 26 11 16 8 21 11 19 12 19 13 14 11 13 11 14 12 6 7-4-2-11-10-11-9-12-10-18-13-14-9-20-12-11-6-4-3-7-3-20-9-8-3-20-8-27-9-28-7-2-1h-16v-2l-2 2 12 5 14 4 17 6 13 7v2l4 2 6 2 2 5-3 5h-2l1 3-10 8-2 1-15 2-5 1-1 4-5 2v2h-2l-1 12-4 17-2 1 1 9-3 12h-3l-2-2-4 5-4 6-4 4-2-1-3 1-5-13-1-9-1-6-1-13-1-18v-31l-1-21 1-4 1-5 2-8v-3h-7z" fill="#E8C66E"/>
<path transform="translate(19,502)" d="m0 0h19l10 2 3 3 2 3 2 6 2 12 2 9 1 7 3 17 3 10v15l-1 8-5 2-1 3-4 1-2 5-3 2-5-3-2-5-4-2-13-26-4-13-2-6v-4l-2-1-2-10-3-9-2-18 1-5z" fill="#E8C66E"/>
<path transform="translate(379,778)" d="m0 0 2 1 2 9 3 13 1 18 1 21v35l-4 5h-6l-9-2-36-12-9-5-2-6 4-6 1-4h2v-2l6-3 6-4 7-2 6-11 2-3-2-1 2-3 1-1v-3-2l5-1 1-7 2-2 1-4 5-3 4-4h2l-1-3 2-3z" fill="#DBB35A"/>
<path transform="translate(341,78)" d="m0 0 2 1 1 46 1 24 2 9-3 19-3 5-12 7-15 8-5 3h-3v2h-2v2l-6 3h-2v2l-6 3-3 3-7 4-5 4-5 3h-2v2l-4 3h-2l-1 3-6 5-5 6-7 6-7 8h-2l-2 5h-2l-1 4-4 6-5 5-7 11h-2l-1 5h-2v2h-2l-1 5-3 4-2 4-6 11-2 6-3 6-4 11-4 12-4 17-3 12-2 15-4 16-4 4h-4l2-24 5-24 7-23 8-21 12-24 13-21 13-18 13-15 11-12 13-12 14-11 13-10 20-12 23-12 12-6 1-1v-52z" fill="#F6DA82"/>
<path transform="translate(825,557)" d="m0 0 2 3-1 8-1 5-6 18-6 12-5 13-1 2h-2l-2 7-8 17-8 13-2 4h-2l-2 5-16 24-11 14h-2l-2 4-4 6-8 8-4 5-7 6-6 7-8 6-3 3h-2v2l-6 5h-3v2h-2v2l-6 4h-2v2l-5 2v2l-3 2h-3v2l-8 5-4 1v2l-8 5-6 3h-3v2h-3l-1 2-17 9-9 5-10 4h-3v2l-12 4-8 4-13 3-11-1v-2l29-10 25-11 27-14 21-13 14-10 13-10 13-11 8-7 12-11 8-8 7-8 13-15 13-17 7-10 11-17 9-16 8-16 9-19 11-29 3-9h2z" fill="#E8C66E"/>
<path transform="translate(732,546)" d="m0 0h14l26 1 5 2 4-1 13 2v1l-55 1-23 1-3 9-11 23-13 21-12 17-12 14-11 12-11 11-11 9-17 13-15 10-22 12-20 10-2 2-1 98h-2l-2-7-1-8v-29l-1-9-1-26v-17l5-7 3-2h3l2-4 6-4h4v-2l6-3 5-2 1-2 7-2v-2l7-3 16-10 13-10 5-4h2v-2l10-7 12-12 7-8 9-12 4-4 4-7 3-5h2l1-5 4-7h2l1-5 3-4 3-7 10-20h2v-2l9-4 6-3z" fill="#E7C56C"/>
<path transform="translate(595,86)" d="m0 0 5 1 17 7 19 10 12 7 9 5 10 7 7 6 5 3 26 20 8 8 10 8v2l4 2 8 8 7 8 12 13 16 22 5 5 12 19 11 20 7 15 10 30v1h-5l-4-5-6-12-5-12-14-28-7-13v-2h-2l-5-10-8-11-7-12-5-5-2-4-3-1-4-5-6-5-6-8-16-14-5-6-8-6v-2l-4-2-9-7-2-1v-2l-5-2-10-6-10-7-16-10-17-10-10-6-17-8-4-4z" fill="#120805"/>
<path transform="translate(517,226)" d="m0 0 8 1 10 4 9 4 7 3v2l7 2 17 9 14 10 8 7 6 4v2h2v2l4 2 6 6v2h2v2h3l5 7 9 7 13 19 10 18 9 20 7 21v10l-6-2-6-13-7-20-15-29-12-16-4-5v-2h-2l-4-6-19-19-8-7-9-7-11-8-21-12-24-11-6-3z" fill="#120805"/>
<path transform="translate(550,371)" d="m0 0h8l2 1 1 3 10 2 14 4 3 1 4 4 1 13-3 8h-2l-2 4h-3v2l-3 2h-12l-10-8-5-5-2-5-1-3-2-1-4-9-4-8 3-3h7z" fill="#E8C66E"/>
<path transform="translate(308,474)" d="m0 0 3 1 6 30 6 16 8 15 6 11 7 10 1 3h2l10 13 12 9 9 7 9 4 11 6 2 3-1 37-1 2-4-1-2-12-1-15-4-8-9-8-10-7-11-10-3-2-1-3-7-5-9-11-4-6v-2h-2l-7-11-6-12-4-10-5-22-5-11-5-4-1-5 1-1z" fill="#120805"/>
<path transform="translate(60,677)" d="m0 0 3 3 2 3v3h2l12 18 12 16 14 17 7 8 3 3v2h2v2l4 2v2h2l5 6v2h2l7 8 8 7 13 11 5 5 2 1v2l4 2 10 6 5 5 11 7 8 5 17 11 11 6 4 2v2l6 2 13 7 5 2 2 3-5 1-38-19-13-7v-2l-4-2-10-7-9-7-3-1-3-3-7-5v-2l-4-2-10-7-13-10v-2l-4-2-5-4v-2h-2l-2-6-5-2-5-5-5-4-7-9v-2l-4-2-1-4h-2l-4-5v-2h-2l-5-8-3-3v-3h-2v-2l-2-1-3-3-1-5-3-1-9-13-5-11v-3h-2z" fill="#120805"/>
<path transform="translate(337,68)" d="m0 0h4v100l-2 6-5 1-5-3 2-6 1-15 2-41v-14l-3-11-4-3-11 1-7 3-7 1-11 6-9 3-9 4-3-2 2-4 23-11 30-11z" fill="#140A05"/>
<path transform="translate(179,560)" d="m0 0 3 4 9 19 9 17 7 10 3 5 9 12 12 14 7 8 11 11 11 9 7 5v2l4 2 10 7 2 1v2l5 2 4 3 9 5 13 8 1 4-12-4-14-8-9-5-11-8-13-11-14-11-6-7-2-1v-2h-2l-7-8-3-3v-2h-2l-16-24-3-5-3-3-5-9-10-19-3-8-1-6-1-5z" fill="#120805"/>
<path transform="translate(806,395)" d="m0 0h29l2 6 2 29v33l-2 26-2 6h-24v-2l5-1v-1l10-2v-2h2l2-5 2-7 1-24v-28l-2-6-1-7-5-5-7-3-11-1-9-4v-1z" fill="#120805"/>
<path transform="translate(676,827)" d="m0 0h3l-1 3-25 14-28 13-28 11-25 8-32 8-41 7 1-9 5 2 4 2 19-3 23-5 4-2h2l1-2v2h2v-2l10-3h5l6-4 21-8 12-4 11-5 5-2 5-1 16-8 9-2 1-3 5-1z" fill="#E6C36A"/>
<path transform="translate(556,69)" d="m0 0 8 1 31 11 23 10 19 10 17 10 21 14 16 12 14 12 10 9 8 7 14 14 7 8 11 13 14 19 2 5-5-5-12-16-9-11-10-10-7-8-5-4v-2l-4-2-15-14-26-20-6-4-9-7-12-8-11-6-15-8-27-12h-5v-2l-3-1v-2l-3 1-9-5-8-3-8-2-5-2v17h-1z" fill="#1F130A"/>
<path transform="translate(326,65)" d="m0 0h6l5 1 3 1-9 4-31 11-20 9-24 12-20 12-17 12-13 10-4 1 5-5 4-2 2-5h3l2-4h3v-2l4-2 7-7h3v-2l13-8 14-7 8-5 9-5 12-6 14-5 11-5z" fill="#E7C46C"/>
<path transform="translate(888,515)" d="m0 0h1v9l-6 28-8 29-9 26-12 28-12 24-11 19-4 6-3 1 2-7 2-1 3-6 5-7 5-10 2-5h2l1-6 5-10 3-9h2l1-7 1-4h2l1-7 4-9 2-7 1-4h2l-1-3 4-13 1-5 2-5v-2h2v-8l2-5 2-3v-9l4-13z" fill="#E6C36B"/>
<path transform="translate(319,711)" d="m0 0 9 1 9 3 1 1 1 101-1 3-9-3-3-3 3-4h2l3-14v-55l-2-13-6-9-5-5v-2z" fill="#120805"/>
<path transform="translate(724,717)" d="m0 0 3 1-18 18-8 7-11 9-5 6-18 13-16 10-9 2-2-2 5-5 9-6 8-5 7-4 4-5 5-3 7-5 5-3 4-2 1-3 11-8 13-10 2-3h3z" fill="#120805"/>
<path transform="translate(523,4)" d="m0 0h9l31 7 27 8 25 9 25 11 16 8 17 9 19 12 19 13 14 11 13 11 14 12 6 7-4-2-11-10-11-9-12-10-18-13-14-9-20-12-11-6-4-3-7-3-20-9-8-3-20-8-27-9-28-7-2-1h-16v-2h-2z" fill="#DFBA61"/>
<path transform="translate(139,687)" d="m0 0 5 5 12 14 9 9 7 8 24 22 11 9 15 11 20 13 17 10 19 10 15 7 27 10 11 4-3 1-16-5-13-5-13-4-5-3-15-7-10-5-13-8-16-10-10-8-11-8-10-8-12-11-28-28-9-11-8-10z" fill="#DFB860"/>
<path transform="translate(432,611)" d="m0 0h8l4 1 15 1 5 2v10l-2 16-4-4-3-11-5-5-6-1-4 4-3 12-5 5z" fill="#120805"/>
<path transform="translate(0,499)" d="m0 0 2 1 1 10h2l5 27 8 33 4 12v8l-5-4-5-16-1-2-1-9-3-9-7-9z" fill="#140A05"/>
<path transform="translate(558,743)" d="m0 0 3 3 2 22v13l1 26 4 2 1 5-2 4-9 2-1-1v-75z" fill="#120805"/>
<path transform="translate(160,414)" d="m0 0 1 4-2 1-148 2-8-1v51l2 1h-3v-55h158z" fill="#DBB35A"/>
<path transform="translate(398,43)" d="m0 0h1l1 11 1 49 2 16 1 21 4 8v2h2l-1 6-9 2-2-1z" fill="#120805"/>
<path transform="translate(838,395)" d="m0 0h1l2 7 4 10 1 12 1 2-1 6v26l1 3-1 9-4 14-2 1-1 9h-1v-12l2-23v-23l-2-26z" fill="#E6C46C"/>
<path transform="translate(109,737)" d="m0 0 7 6 7 8 20 20 8 7 13 11 11 9 12 9 16 10 4 2v2l5 2 16 10 24 13 27 12 12 5 2 2-5-1-20-8-28-13-20-11-22-14-15-11-18-14-10-8-7-7-11-9-12-12-7-8-4-4v-2h-2l-3-4z" fill="#DEB860"/>
<path transform="translate(488,372)" d="m0 0 9 2 9 4 11 6h2l7 7 6 2 4 4 2 5-1 9h-4v-2h-2l-4-5v-2h-2v-3h-2l-1-4-4-2-11-7-6-3v-2l-6-1-7-3-2-1v-3z" fill="#120805"/>
<path transform="translate(887,342)" d="m0 0 6 1 3 2v76h-1l-4-36-5-32v-10z" fill="#120805"/>
<path transform="translate(274,602)" d="m0 0 4 2 7 8 7 7 14 11 12 9 13 8 23 12 28 10 20 5 20 3 11 1v1h-15l-16-2-17-4-24-8-16-7-14-7-14-9-12-9-14-12-8-7-7-8z" fill="#DFB960"/>
<path transform="translate(308,473)" d="m0 0h4l5 24 5 16 8 18 10 17 9 11 10 11 11 9 12 9 16 9 3 2v5l-4-5-20-10-8-6-9-7-5-4-7-9-1-3h-2l-7-10-6-10-6-11-7-16-3-8-6-30z" fill="#1F130A"/>
<path transform="translate(556,577)" d="m0 0 2 1-5 5-10 7-23 12-16 5h-8l2-2 6-1v-3l7-3 22-11 10-4h2v-2l6-3z" fill="#F4D77F"/>
<path transform="translate(640,578)" d="m0 0h2l-2 5-6 8-4 6-3 6h-2l-2 4-9 9-6 7-7 5-7 2-2 4-9 6-14 9-6 3-5 2 2-4 17-10 19-14 11-10h2v-2l14-14 11-14z" fill="#F4D880"/>
<path transform="translate(895,466)" d="m0 0h1v81l-4-1-3-4-1-5v-7l2-11 3-32z" fill="#120805"/>
<path transform="translate(499,273)" d="m0 0 4 3-3 18h2l7 12 4 3 14 5 5 4-1 3-5-1-9-3-17-5-2-2v-36z" fill="#120805"/>
<path transform="translate(493,610)" d="m0 0h1v37l-16 1h-12l-1-3 1-21h1l2 8 2 1 1 4h2l1 3 10 1v-2h3l2-9 2-1z" fill="#F6DB83"/>
<path transform="translate(554,66)" d="m0 0 8 1 19 7 22 9 9 4-3 1-25-10-23-8-5-1v105l1 2 10 4 21 10 6 4-2 1-21-11-13-5-4-3z" fill="#DFB960"/>
<path transform="translate(500,731)" d="m0 0h1l1 9h3l1 17-2 30-3 22h-1l-1-26v-44z" fill="#E7C46C"/>
<path transform="translate(821,689)" d="m0 0 1 3-10 14-10 13-11 14-11 13-2 2h-3v-4h2l2-4 1-3 4-4 5-6h2l2-5h2l2-5 8-11h2v-2h2l1-4 3-5h2l1-4z" fill="#E6C36B"/>
<path transform="translate(557,71)" d="m0 0 5 1 10 3 10 4 6 3h2v2l4 1-1 2h-8l-10-3-9 1-4 5-3 1-2-2z" fill="#120805"/>
<path transform="translate(11,336)" d="m0 0 1 3-2 9-4 26-1 5h-2l-1 11-2 3v-47l5-4 4 1v-6z" fill="#130805"/>
<path transform="translate(617,569)" d="m0 0h27v5l-4 5-6 5-7 8-4 3 1-6 3-5-2-8-9-5z" fill="#120805"/>
<path transform="translate(495,100)" d="m0 0h2v56l-6 1-7-2 3-8 3-3 2-11 1-18 1-6z" fill="#120805"/>
<path transform="translate(400,278)" d="m0 0h1l1 11v31l-9 3-3-1 1-5 3-9 2-25 1-3z" fill="#120805"/>
<path transform="translate(512,606)" d="m0 0 5 1-2 4-7 3-4 5-2 12-1 8-5 1v-30l7-2z" fill="#120805"/>
<path transform="translate(888,515)" d="m0 0h1v9l-6 28-8 29-2 6-1-2-3-1 2-9 2-7 3-8v-2h2v-8l2-5 2-3v-9l4-13z" fill="#E6C46B"/>
<path transform="translate(496,732)" d="m0 0 2 1-1 37h-1l-2-10-4-13-4-5-5-3v-2h-2v-2z" fill="#120805"/>
<path transform="translate(342,718)" d="m0 0 2 1 1 13v72l-2 5h-2v-80z" fill="#F8DD85"/>
<path transform="translate(335,713)" d="m0 0 5 2 1 12v65l-1 25h-1l-1-12-1-89z" fill="#1F130A"/>
<path transform="translate(399,786)" d="m0 0h1l1 12v79l-2 5h-1v-93z" fill="#120805"/>
<path transform="translate(461,275)" d="m0 0 4 2 1 30h-13l-1-2 6-10 2-18z" fill="#120805"/>
<path transform="translate(217,408)" d="m0 0h1v8h101l-1 3h-45l-54-1-3-2z" fill="#E1BC63"/>
<path transform="translate(234,243)" d="m0 0 2 1-8 10-11 12-1 2h-2l-1 4-7 10-3-2 1-5 4-5 7-11 8-7 5-5z" fill="#120805"/>
<path transform="translate(394,102)" d="m0 0h1l1 5v43l-3 3-3-5 1-23 2-19z" fill="#F8DD85"/>
<path transform="translate(396,731)" d="m0 0 2 1-1 158-4 1-5-1v-1h7v-65z" fill="#DBB35A"/>
<path transform="translate(398,733)" d="m0 0 16 2 2 5-9 5-4 2-1 4-4 2z" fill="#120805"/>
<path transform="translate(700,395)" d="m0 0h69l3 2-3 2-16 1-19-2h-27l-7-2z" fill="#120805"/>
<path transform="translate(400,218)" d="m0 0 7 1v3l-9 1-4 1-8 3-9 1-2 2-7 2-7 3-8 1v-2l8-4 3-2 7-1 8-3 10-4 1-1z" fill="#120805"/>
<path transform="translate(496,9)" d="m0 0 2 4v31l-1 23h-2l-1-7 1-10-2-1v-5l1-3v-10l-2-13 1-7z" fill="#120805"/>
<path transform="translate(558,137)" d="m0 0 3 4 1 12 4 14 3 7-1 2-7-1-3-2-1-13z" fill="#120805"/>
<path transform="translate(675,58)" d="m0 0 11 6 12 8 14 10 13 10 13 11 14 12 6 7-4-2-11-10-11-9-12-10-18-13-14-9-13-8z" fill="#DFB960"/>
<path transform="translate(571,709)" d="m0 0 4 1-2 4-5 4h-2l-1 4-4 8h-4l-1-4v-9l3-3 8-4z" fill="#120805"/>
<path transform="translate(161,499)" d="m0 0 2 4 4 19 7 22-1 4h-2l-4-6-1-10-2-4-4-19v-8z" fill="#120805"/>
<path transform="translate(161,384)" d="m0 0 1 4-2 25-1 2h-7l-4-1v-5l10-12 2-11z" fill="#120805"/>
<path transform="translate(557,98)" d="m0 0 4 2 1 22-1 11-3 3-1-3z" fill="#120805"/>
<path transform="translate(109,737)" d="m0 0 7 6 7 8 20 20 8 7 13 11v2l-4-2-8-7-11-10-8-7-8-8-7-8-4-4v-2h-2l-3-4z" fill="#DFB960"/>
<path transform="translate(164,790)" d="m0 0 4 2 8 7 13 9 15 10 3 1v2l5 2 8 5-2 1-7-3-16-10-12-9-18-14z" fill="#E1BC63"/>
<path transform="translate(807,554)" d="m0 0h16l-2 8-2 5-6-2-2-5h-2z" fill="#120805"/>
<path transform="translate(623,32)" d="m0 0 6 2 20 9 22 12 4 3v2l-5-2-10-6-6-3-15-7-16-8z" fill="#DFB961"/>
<path transform="translate(598,624)" d="m0 0 2 1-4 5h-2l-2 4-9 6-14 9-6 3-5 2 2-4 17-10 19-14z" fill="#F2D57D"/>
<path transform="translate(24,604)" d="m0 0 4 1 7 18 2 4v5l-5-4-3-6-5-12z" fill="#120805"/>
<path transform="translate(318,401)" d="m0 0h3l-2 9-2 5h-10l-1-2 3-5z" fill="#120805"/>
<path transform="translate(571,569)" d="m0 0h12l2 2-7 4-9 2-5 3-4-1 8-9z" fill="#120805"/>
<path transform="translate(256,314)" d="m0 0h2v6l-4 4h-2l-1 6-4 8-6 5-1-3 4-7 7-11 3-6h2z" fill="#120805"/>
<path transform="translate(520,528)" d="m0 0 3 2-1 2h-2l-2 4-9 6-4-1 1-6 8-4z" fill="#120805"/>
<path transform="translate(279,680)" d="m0 0 5 2 19 12 26 14 7 3 1 2-5-1-22-11-20-12-10-7z" fill="#E0BA61"/>
<path transform="translate(889,365)" d="m0 0h1l3 18 1 3h2v35h-1l-4-36-2-14z" fill="#1F130A"/>
<path transform="translate(422,214)" d="m0 0h18l2 1v3h-32l2-3z" fill="#120805"/>
<path transform="translate(554,66)" d="m0 0 8 1 19 7 22 9 9 4-3 1-25-10-23-8v-2l-6-1-1 4z" fill="#E1BC63"/>
<path transform="translate(377,329)" d="m0 0h2l-1 4-10 8h-2v2l-8 5 1-5 7-8 8-5z" fill="#120805"/>
<path transform="translate(846,646)" d="m0 0 1 3-10 19-10 16-3 1 2-7 2-1 3-6 5-7 5-10 2-5h2z" fill="#E3BF67"/>
<path transform="translate(718,554)" d="m0 0h15l-3 4-9 4-2 2-4-1-1-2 3-6z" fill="#120805"/>
<path transform="translate(221,398)" d="m0 0 3 1 6 11-2 4h-5l-2-2-1-12z" fill="#120805"/>
<path transform="translate(830,315)" d="m0 0h15l2 2-2 3-10 2-6-1-1-4z" fill="#120805"/>
<path transform="translate(895,466)" d="m0 0h1v37l-2 1-2 8h-1l1-15z" fill="#1F130A"/>
<path transform="translate(435,295)" d="m0 0 5 3 3 4-1 6-7 1-1-1v-12z" fill="#120805"/>
<path transform="translate(594,195)" d="m0 0 5 2 10 6 14 10 13 11 1 2-4-2-12-9-15-11-11-7z" fill="#DFB961"/>
<path transform="translate(274,602)" d="m0 0 4 2 7 8 7 7 14 11 3 5-4-2-14-12-8-7-7-8z" fill="#E0BA62"/>
<path transform="translate(888,515)" d="m0 0h1v9l-4 20-2-2-1-9 4-13z" fill="#E5C26A"/>
<path transform="translate(139,687)" d="m0 0 5 5 12 14 9 9 7 8 2 4-7-6-11-11-9-11-8-10z" fill="#DFB960"/>
<path transform="translate(443,605)" d="m0 0 10 1 7 4v1h-15l-8-2 4-3z" fill="#F8DD85"/>
<path transform="translate(235,246)" d="m0 0v3l-11 12-12 16h-2l2-5 2-4h2l2-4 14-15z" fill="#1F130A"/>
<path transform="translate(393,217)" d="m0 0m-4 1 4 1-15 7-7 2h-7l3-3 18-6z" fill="#1F130A"/>
<path transform="translate(286,803)" d="m0 0 10 3 24 9 11 4-3 1-16-5-13-5-7-2v-2l-6-2z" fill="#DBB35A"/>
<path transform="translate(742,779)" d="m0 0 1 2-5 6-11 9-3-1 6-7 3-4h2v-2l4-1z" fill="#E5C26A"/>
<path transform="translate(606,393)" d="m0 0 2 1v12l-8 11h-2v2l-3-1 6-8 4-10z" fill="#120805"/>
<path transform="translate(544,658)" d="m0 0h4v2l-17 6-11 4-9 2 3-3 20-7z" fill="#EECF77"/>
<path transform="translate(723,93)" d="m0 0 4 1 10 8 15 13 6 7-4-2-11-10-11-9-9-7z" fill="#E0BA61"/>
<path transform="translate(676,827)" d="m0 0h3l-1 3-19 11h-2l2-4 2-3 5-1z" fill="#E2BE66"/>
<path transform="translate(403,677)" d="m0 0 15 1 9 1v3h-9l-12-2-3-1z" fill="#F8DD85"/>
<path transform="translate(623,32)" d="m0 0 6 2 20 9 1 2-6-1-18-8-3-2z" fill="#DFB960"/>
<path transform="translate(523,4)" d="m0 0h9l19 4v2l3 1-7-1-6-2h-16v-2h-2z" fill="#E3BF66"/>
<path transform="translate(500,882)" d="m0 0 5 2 4 2h7l-3 2-13 3-1-2z" fill="#E6C36B"/>
<path transform="translate(677,761)" d="m0 0 2 1-12 9-16 10-2-1 10-7z" fill="#1F130A"/>
<path transform="translate(801,165)" d="m0 0 4 1v2h2l5 8 4 4-1 4-4-4-5-7v-2h-2l-3-4z" fill="#120805"/>
<path transform="translate(366,664)" d="m0 0 23 7v2l3 1-7-1-22-7z" fill="#DFBA61"/>
<path transform="translate(137,420)" d="m0 0h13l2 1v2l-9 2-9-3z" fill="#F8DD85"/>
<path transform="translate(716,324)" d="m0 0 4 1 4 5v4l-4 1-5-7z" fill="#120805"/>
<path transform="translate(700,74)" d="m0 0 11 7 14 11-3 1-10-8-12-8z" fill="#DDB75E"/>
<path transform="translate(507,605)" d="m0 0m-3 1 3 1-5 3h-6v30h-1v-31z" fill="#1F130A"/>
<path transform="translate(808,552)" d="m0 0h17l-2 9-1 4h-2l2-9 1-2h-16z" fill="#1F130A"/>
<path transform="translate(513,891)" d="m0 0 4 1-1 4h-14l5-4z" fill="#120805"/>
<path transform="translate(582,565)" d="m0 0h18l-2 2-23 1v-2z" fill="#F2D47C"/>
<path transform="translate(834,668)" d="m0 0 1 3-8 13-3 1 2-7 2-1 3-6z" fill="#E5C169"/>
<path transform="translate(253,316)" d="m0 0v3l-4 8-4 6-4 7-2 1 2-5 10-18z" fill="#1F130A"/>
<path transform="translate(94,276)" d="m0 0h3l-6 15-3 2 1-7z" fill="#160B06"/>
<path transform="translate(269,796)" d="m0 0 7 1 10 5 1 2 5 2-3 1-20-10z" fill="#E2BD65"/>
<path transform="translate(796,724)" d="m0 0v3l-11 13-7 8v-3l9-10 7-9z" fill="#DBB35A"/>
<path transform="translate(236,349)" d="m0 0 2 4-5 11-3 1 2-10h2z" fill="#120805"/>
<path transform="translate(608,26)" d="m0 0 9 3 6 3v2l2 1-5-1-7-3-8-3z" fill="#E0BA62"/>
<path transform="translate(105,250)" d="m0 0h2l-2 6-6 11-2-1 1-5 3-4z" fill="#E4C068"/>
<path transform="translate(4,463)" d="m0 0 3 1 4 7-6 1-2-1v-7z" fill="#F8DD85"/>
<path transform="translate(675,497)" d="m0 0h10l-8 8h-2z" fill="#F4D77F"/>
<path transform="translate(378,893)" d="m0 0h9l5 2v1h-17z" fill="#120805"/>
<path transform="translate(852,633)" d="m0 0h2l-2 6-4 8-2-1 1-4 3-7z" fill="#E5C269"/>
<path transform="translate(528,883)" d="m0 0 7 1v1l-18 3-4-1 10-3z" fill="#E3BE66"/>
<path transform="translate(720,798)" d="m0 0h2l-1 3-11 8-3-1 11-9z" fill="#E3BF67"/>
<path transform="translate(293,865)" d="m0 0h6l9 4 9 3-4 1-20-7z" fill="#DCB55C"/>
<path transform="translate(644,567)" d="m0 0 3 2-3 3v-3h-27v-1z" fill="#1F130A"/>
<path transform="translate(286,803)" d="m0 0 10 3 9 4-4 1-9-3v-2l-6-2z" fill="#DCB55C"/>
<path transform="translate(151,780)" d="m0 0 4 1 9 8v2l-4-2-8-7z" fill="#DEB85F"/>
<path transform="translate(703,740)" d="m0 0v3l-14 12-2-1 11-10z" fill="#1F130A"/>
<path transform="translate(640,578)" d="m0 0h2l-2 5-6 8-4 2 2-4z" fill="#EECF77"/>
<path transform="translate(216,828)" d="m0 0 9 3 5 3 1 3-6-2-9-6z" fill="#DEB85F"/>
<path transform="translate(675,58)" d="m0 0 11 6 2 4-12-6z" fill="#DEB85F"/>
<path transform="translate(149,111)" d="m0 0 2 1-15 14v-3l9-9z" fill="#EDCE76"/>
<path transform="translate(666,833)" d="m0 0m-5 1h5v3l-7 4h-2l2-4z" fill="#E4C068"/>
<path transform="translate(757,685)" d="m0 0h2l-2 5-7 8-1-3z" fill="#EFD078"/>
<path transform="translate(551,9)" d="m0 0 8 1 10 3v1h-7l-11-4z" fill="#DEB85F"/>
<path transform="translate(230,835)" d="m0 0 5 2 9 5v2l-5-2-8-4z" fill="#E0BB62"/>
<path transform="translate(594,195)" d="m0 0 5 2 10 6v3l-11-7z" fill="#E0BB62"/>
<path transform="translate(702,743)" d="m0 0h2v2l-11 9h-2l1-3z" fill="#F0D27A"/>
<path transform="translate(377,668)" d="m0 0 12 3v2l3 1-7-1-8-3z" fill="#E0BB62"/>
<path transform="translate(380,418)" d="m0 0h2l1 4-2 4h-4l2-6z" fill="#120805"/>
<path transform="translate(872,309)" d="m0 0h4v4h-15v-1l10-1z" fill="#F5D981"/>
<path transform="translate(647,45)" d="m0 0 7 1 7 4-1 2-6-3-7-3z" fill="#E1BC63"/>
<path transform="translate(544,658)" d="m0 0h4v2l-10 4-2-1 3-3z" fill="#F2D47C"/>
<path transform="translate(794,631)" d="m0 0 1 2-4 8h-2l-1 2 1-5 3-6z" fill="#F0D27A"/>
<path transform="translate(497,154)" d="m0 0 1 4-4 1-7-1v-2h10z" fill="#1F130A"/>
</svg>
